<svg xmlns="http://www.w3.org/2000/svg" fill="none" viewBox="0 0 266 117">
    <g clip-path="url(#a)">
        <path fill="#16498B" d="M66.695 83.158c-10.801.038-30.22.053-32.028-.062-1.664-.199-4.177-.511-5.753-1.852-2.493-1.67-4.438-4.81-6.03-9.834-.743-2.328-1.807-4.913-7.171-22.734L0 58.996C3.933 71.287 5.668 75.45 8.444 83.329c6.788 19.27 24.334 16.608 24.334 16.608l25.981-.005 7.936-16.774Z"/>
        <path fill="#16498B" d="M35.189 0 74.96.23c-1.508 8.621-2.559 17.272-4.787 25.26l-19.272.014V29.9h17.835c-1.257 5.439-4.134 14.745-7.853 21.778h-19.61v.138h-.24l.24 4.26h17.49C55.904 62.3 48.625 73.8 40.14 79.653c-.155.034-4.129.344-5.39-.216-4.13-1.047-5.614-4.305-6.892-6.474-.603-1.023-1.8-4.487-1.8-4.487l-6.678-22.2C31.218 33.8 35.02 16.817 35.188 0Zm169.298 100.356h47.495l3.852-14.279h-47.776l-3.571 14.279Zm-51.633-31.683c.016-.055.019-.065.032-.12h.05c-.027.05-.055.085-.082.12Zm33.225 0c.015-.055.02-.065.034-.12h.049c-.031.05-.057.085-.083.12ZM83.919 31.316 55.325 99.882h36.637l7.1-16.915H82.558l21.542-51.65H83.919Z"/>
        <path fill="#16498B" d="m121.697 99.822 18.174-.013 4.782-10.975 2.024 10.965h18.747l-3.848-18.45c2.052-1.13 3.976-2.428 5.612-4.07 2.727-2.743 4.598-6.144 5.564-10.109.295-1.21.452-2.322.497-3.338.187-4.224-1.543-6.846-3.22-8.38-2.61-2.396-6.389-3.58-11.544-3.614l-15.817-.107-20.971 48.09Z"/>
        <path fill="#16498B" d="m156.422 99.833 18.169-.04 4.786-10.988 2.044 11.028 18.813-.042-3.917-18.448c2.046-1.13 3.966-2.427 5.597-4.065 2.726-2.74 4.596-6.14 5.566-10.104.295-1.21.451-2.32.497-3.338.187-4.22-1.539-6.842-3.214-8.378-2.615-2.401-6.394-3.586-11.552-3.62l-15.814-.107-20.975 48.102Z"/>
        <path fill="#16498B" d="m226.468 54.416-5.903 6.878-2.233-9.526-18.457-.027 6.073 26.67c-.9 2.346-14.404 37.918-14.404 37.918l27.187-21.777s4.708-11.222 5.259-12.524c1.061-1.169 41.486-42.708 41.486-42.708l-39.007 15.097h-.001ZM113.545 52.52l-.004.002c-3.365 1.457-6.454 3.55-9.176 6.225-2.683 2.612-5.028 5.728-6.951 9.245a47.13 47.13 0 0 0-4.315 10.988c-1.546 6.07-1.202 11.123 1.02 15.02 1.632 2.869 5.131 6.387 12.522 6.832 3.83.231 7.476-.382 10.836-1.824 3.214-1.384 6.271-3.452 9.092-6.152 2.644-2.542 4.994-5.638 6.993-9.214 1.967-3.525 3.484-7.364 4.513-11.41 1.526-5.995 1.173-11-1.05-14.87-2.39-4.142-6.609-6.416-12.548-6.77a23.72 23.72 0 0 0-10.932 1.928Z"/>
        <path fill="#FEFEFE" d="M89.021 95.347H62.057l24.81-59.496h10.501l-21.434 51.01H92.42l-3.4 8.486Zm79.323-29.064c-.762 3.125-2.196 5.749-4.304 7.868-2.11 2.12-4.657 3.714-7.647 4.776l3.406 16.336h-9.307l-2.624-14.216-4.651-.096-6.242 14.324-8.427.006 17.005-38.994 12.701.085c3.979.027 6.855.857 8.63 2.487 1.781 1.63 2.268 4.106 1.459 7.424h.001Zm-9.469 1.626c.384-1.567.23-2.682-.447-3.338-.683-.662-1.84-.996-3.476-1.01l-4.156-.027-4.568 10.467 4.133.028c2.225.013 4.08-.519 5.572-1.6 1.49-1.08 2.472-2.588 2.942-4.52Zm44.198-1.626c-.764 3.125-2.198 5.749-4.306 7.868-2.111 2.12-4.659 3.714-7.644 4.777l3.468 16.34-9.359.021-2.64-14.242-4.691-.032-6.208 14.248-8.416.019 17.005-38.995 12.698.086c3.979.026 6.858.857 8.633 2.487 1.779 1.63 2.268 4.105 1.46 7.423Zm-9.469 1.627c.382-1.568.23-2.683-.452-3.339-.677-.661-1.834-.996-3.471-1.01l-4.156-.027-4.567 10.467 4.129.028c2.227.013 4.086-.519 5.578-1.6 1.485-1.08 2.469-2.588 2.939-4.52Zm53.121-16.788-26.589 28.549-4.598 10.867-14.156 12.269 9.299-24.251-5.071-22.271 9.076.013 3.433 14.659 11.09-12.92 17.516-6.915ZM133.666 71.479c-.931 3.668-2.282 7.076-4.038 10.224-1.76 3.146-3.777 5.817-6.062 8.013-2.388 2.285-4.911 4-7.579 5.15-2.672 1.145-5.566 1.627-8.688 1.44-4.448-.269-7.508-1.864-9.175-4.794-1.67-2.928-1.873-6.852-.617-11.775a42.008 42.008 0 0 1 3.861-9.845c1.685-3.08 3.699-5.763 6.05-8.052 2.281-2.242 4.822-3.968 7.626-5.181a18.963 18.963 0 0 1 8.775-1.54c4.471.268 7.536 1.848 9.206 4.742 1.664 2.894 1.878 6.765.641 11.618Zm-15.712 12.06a28.09 28.09 0 0 0 3.205-5.212c.91-1.9 1.716-4.231 2.422-6.993.606-2.388.673-4.248.205-5.586-.472-1.335-1.574-2.055-3.313-2.159-1.345-.081-2.64.276-3.878 1.074-1.241.799-2.45 1.96-3.633 3.492-1.099 1.417-2.133 3.192-3.099 5.325a39.829 39.829 0 0 0-2.32 6.608c-.677 2.668-.713 4.604-.099 5.806.608 1.203 1.704 1.85 3.281 1.945 1.154.067 2.368-.276 3.642-1.036 1.273-.758 2.473-1.848 3.587-3.265Z"/>
    </g>
    <defs>
        <clipPath id="a">
            <path fill="#fff" d="M0 0h265.476v116.329H0z"/>
        </clipPath>
    </defs>
</svg>
