<svg xmlns="http://www.w3.org/2000/svg" fill="none" viewBox="0 0 266 117">
    <path fill="#FEFEFE" d="M66.695 83.157c-10.8.038-30.22.053-32.028-.062-1.664-.198-4.177-.51-5.753-1.852-2.493-1.67-4.438-4.81-6.03-9.834-.743-2.328-1.807-4.913-7.171-22.734L0 58.995c3.933 12.292 5.668 16.454 8.445 24.333 6.787 19.27 24.333 16.608 24.333 16.608l25.98-.005 7.936-16.773Z"/>
    <path fill="#FEFEFE" d="M35.189 0 74.96.23c-1.508 8.62-2.559 17.271-4.786 25.26l-19.272.013V29.9h17.835c-1.257 5.439-4.135 14.745-7.854 21.779h-19.61v.137h-.24l.24 4.26h17.49c-2.86 6.222-10.138 17.722-18.622 23.576-.155.034-4.129.344-5.39-.216-4.13-1.047-5.614-4.305-6.893-6.474-.602-1.024-1.8-4.487-1.8-4.487l-6.678-22.2C31.218 33.801 35.021 16.816 35.188 0ZM204.487 100.355h47.495l3.851-14.278h-47.775l-3.571 14.278Z"/>
    <path fill="#16498B" d="m152.854 68.672.032-.12h.049c-.026.05-.055.085-.081.12Zm33.224 0c.016-.055.021-.065.034-.12h.049a1.677 1.677 0 0 1-.083.12Z"/>
    <path fill="#FEFEFE" d="M83.92 31.315 55.325 99.881h36.637l7.1-16.915H82.559l21.542-51.65H83.92ZM121.697 99.821l18.174-.013 4.782-10.975 2.024 10.965h18.747l-3.847-18.449c2.051-1.13 3.975-2.428 5.611-4.072 2.727-2.742 4.598-6.143 5.565-10.108.295-1.209.451-2.321.496-3.338.188-4.224-1.542-6.845-3.22-8.38-2.609-2.395-6.389-3.58-11.543-3.614l-15.817-.107-20.971 48.091h-.001Z"/>
    <path fill="#FEFEFE" d="m156.422 99.832 18.169-.04 4.786-10.988c.692 3.74 2.044 11.028 2.044 11.028l18.813-.042-3.917-18.448c2.047-1.13 3.966-2.427 5.598-4.065 2.725-2.74 4.596-6.14 5.566-10.104.295-1.211.451-2.32.497-3.339.187-4.218-1.539-6.841-3.214-8.378-2.615-2.4-6.395-3.586-11.552-3.62l-15.814-.106-20.975 48.101h-.001Z"/>
    <path fill="#FEFEFE" d="m226.468 54.415-5.903 6.878-2.233-9.526-18.457-.028 6.073 26.671c-.9 2.347-14.404 37.918-14.404 37.918l27.187-21.777s4.708-11.221 5.259-12.523c1.061-1.17 41.486-42.709 41.486-42.709l-39.007 15.096h-.001ZM113.544 52.52l-.004.001c-3.365 1.457-6.453 3.55-9.175 6.225-2.683 2.612-5.028 5.728-6.952 9.245A47.13 47.13 0 0 0 93.1 78.979c-1.546 6.07-1.203 11.124 1.019 15.02 1.632 2.87 5.131 6.387 12.522 6.833 3.83.23 7.476-.383 10.836-1.825 3.214-1.384 6.271-3.452 9.093-6.152 2.644-2.541 4.994-5.638 6.992-9.214 1.967-3.526 3.485-7.364 4.513-11.41 1.527-5.996 1.173-11-1.05-14.87-2.389-4.141-6.608-6.416-12.547-6.77a23.722 23.722 0 0 0-10.933 1.928Z"/>
    <path fill="#16498B" d="M89.022 95.346H62.056l24.81-59.496h10.501L75.934 86.86h16.487l-3.4 8.486ZM168.344 66.283c-.762 3.124-2.196 5.748-4.303 7.868-2.111 2.12-4.657 3.714-7.647 4.776l3.406 16.336h-9.307l-2.624-14.216-4.651-.096-6.242 14.324-8.428.007 17.005-38.995 12.701.086c3.979.026 6.855.857 8.63 2.486 1.782 1.63 2.269 4.106 1.46 7.424Zm-9.469 1.626c.385-1.568.23-2.682-.447-3.338-.683-.662-1.84-.997-3.476-1.01l-4.156-.027L146.229 74l4.132.029c2.224.012 4.08-.519 5.572-1.6 1.49-1.08 2.472-2.588 2.942-4.52ZM203.073 66.283c-.765 3.124-2.199 5.748-4.306 7.868-2.111 2.12-4.659 3.714-7.644 4.776l3.468 16.341-9.359.021-2.639-14.242-4.692-.032-6.208 14.248-8.415.019 17.004-38.995 12.699.086c3.98.026 6.858.857 8.633 2.486 1.779 1.63 2.269 4.106 1.46 7.424h-.001Zm-9.469 1.626c.381-1.568.229-2.682-.452-3.338-.678-.662-1.835-.997-3.471-1.01l-4.156-.027L180.958 74l4.129.029c2.227.012 4.085-.519 5.577-1.6 1.486-1.08 2.47-2.588 2.94-4.52ZM246.725 51.12l-26.589 28.55-4.597 10.867-14.157 12.269 9.299-24.252-5.071-22.27 9.076.013 3.433 14.659 11.09-12.92 17.516-6.915ZM133.666 71.478c-.931 3.668-2.282 7.076-4.038 10.224-1.759 3.147-3.777 5.817-6.062 8.014-2.388 2.284-4.911 4-7.578 5.148-2.673 1.146-5.567 1.628-8.688 1.44-4.449-.268-7.509-1.863-9.176-4.793-1.67-2.928-1.873-6.852-.617-11.775a42.018 42.018 0 0 1 3.861-9.846c1.686-3.08 3.699-5.763 6.05-8.052 2.282-2.242 4.823-3.967 7.626-5.18a18.97 18.97 0 0 1 8.776-1.54c4.47.267 7.535 1.848 9.205 4.741 1.664 2.895 1.878 6.766.641 11.619Zm-15.712 12.06a28.016 28.016 0 0 0 3.204-5.212c.911-1.9 1.717-4.231 2.423-6.993.606-2.388.673-4.248.205-5.586-.472-1.334-1.574-2.054-3.313-2.158-1.345-.081-2.64.276-3.878 1.074-1.241.798-2.45 1.96-3.633 3.49-1.099 1.418-2.133 3.193-3.099 5.326a39.837 39.837 0 0 0-2.32 6.608c-.677 2.668-.713 4.605-.099 5.806.609 1.203 1.704 1.85 3.282 1.945 1.154.068 2.367-.276 3.642-1.036 1.273-.758 2.472-1.848 3.587-3.265h-.001Z"/>
</svg>
